<svg width="508" height="508" viewBox="0 0 508 508" fill="none" xmlns="http://www.w3.org/2000/svg">
<path d="M176.388 458.147C174.685 458.147 173.012 457.701 171.534 456.855C170.056 456.009 168.825 454.791 167.963 453.323C131.447 391.111 34.1405 258.709 33.1617 257.378C31.7714 255.488 31.1076 253.161 31.2916 250.823C31.4756 248.484 32.4952 246.289 34.164 244.64L64.0754 215.083C65.7005 213.477 67.8369 212.492 70.1133 212.298C72.3896 212.104 74.662 212.714 76.5351 214.022L174.351 282.325C239.383 198.782 299.818 141.127 339.539 107.156C384.063 69.0724 412.37 51.9596 413.553 51.2465C415.072 50.335 416.809 49.8535 418.58 49.8534H466.969C468.95 49.853 470.884 50.4547 472.515 51.5786C474.145 52.7025 475.396 54.2956 476.101 56.1466C476.805 57.9975 476.931 60.019 476.461 61.9429C475.99 63.8668 474.946 65.6023 473.467 66.9192C401.73 130.81 327.148 232.325 277.215 306.232C222.934 386.568 185.252 452.555 184.878 453.212C184.03 454.701 182.805 455.941 181.326 456.807C179.847 457.673 178.166 458.135 176.453 458.146L176.388 458.147Z" fill="#2c74bc"/>
</svg>
