<svg width="512" height="512" viewBox="0 0 512 512" fill="none" xmlns="http://www.w3.org/2000/svg">
<g clip-path="url(#clip0_42_24)">
<path d="M435.2 204.8C419.84 204.8 409.6 215.04 409.6 230.4V486.4C409.6 501.76 419.84 512 435.2 512C450.56 512 460.8 501.76 460.8 486.4V230.4C460.8 215.04 450.56 204.8 435.2 204.8Z" fill="#2c74bc"/>
<path d="M332.8 281.6C317.44 281.6 307.2 291.84 307.2 307.2V486.4C307.2 501.76 317.44 512 332.8 512C348.16 512 358.4 501.76 358.4 486.4V307.2C358.4 291.84 348.16 281.6 332.8 281.6Z" fill="#2c74bc"/>
<path d="M230.4 358.4C215.04 358.4 204.8 368.64 204.8 384V486.4C204.8 501.76 215.04 512 230.4 512C245.76 512 256 501.76 256 486.4V384C256 368.64 245.76 358.4 230.4 358.4Z" fill="#2c74bc"/>
<path d="M128 435.2C112.64 435.2 102.4 445.44 102.4 460.8V486.4C102.4 501.76 112.64 512 128 512C143.36 512 153.6 501.76 153.6 486.4V460.8C153.6 445.44 143.36 435.2 128 435.2Z" fill="#2c74bc"/>
<path d="M486.4 0H386.56C371.2 0 360.96 10.24 360.96 25.6C360.96 40.96 371.2 51.2 386.56 51.2H424.96L248.32 225.28L112.64 181.76C99.84 179.2 87.04 184.32 81.92 197.12L5.12002 373.76C2.1506e-05 386.56 5.12002 401.92 17.92 407.04C30.72 412.16 46.08 407.04 51.2 394.24L120.32 238.08L248.32 279.04C258.56 281.6 266.24 279.04 273.92 273.92L460.8 87.04V125.44C460.8 140.8 471.04 151.04 486.4 151.04C501.76 151.04 512 140.8 512 125.44V25.6C512 12.8 499.2 0 486.4 0Z" fill="#2c74bc"/>
</g>
<defs>
<clipPath id="clip0_42_24">
<rect width="512" height="512" fill="white"/>
</clipPath>
</defs>
</svg>
