<svg width="512" height="512" viewBox="0 0 512 512" fill="none" xmlns="http://www.w3.org/2000/svg">
<g clip-path="url(#clip0_43_40)">
<path d="M379.707 50.385C345.313 16.792 299.873 -1.089 251.732 0.0509971C206.653 1.114 164.009 19.314 131.653 51.299C99.293 83.289 80.612 125.723 79.049 170.783C77.473 216.252 93.13 260.036 123.137 294.07C144.178 317.934 155.767 347.856 155.767 378.326V445.405H178.262V481.682L183.737 486.183C204.672 503.394 230.336 512 256 512C281.664 512 307.328 503.394 328.263 486.182L333.738 481.681V445.404H356.233V378.449C356.233 347.276 367.251 317.947 387.257 295.865C416.793 263.266 433.059 221.073 433.059 177.061C433.06 128.976 414.112 83.988 379.707 50.385ZM326.23 383.998V415.4H185.77V383.998H326.23ZM303.734 467.142C275.122 486.973 236.877 486.973 208.265 467.142V445.404H303.734V467.142ZM365.022 275.72C345.363 297.419 332.65 324.598 328.104 353.994H271.001V240.239L326.227 185.013L305.011 163.797L256 212.808L206.988 163.797L185.772 185.013L240.998 240.239V353.994H183.794C179.059 324.91 165.922 297.227 145.642 274.227C120.726 245.967 107.726 209.599 109.035 171.822C110.33 134.446 125.854 99.222 152.746 72.637C179.637 46.054 215.042 30.929 252.439 30.047C292.425 29.127 330.178 43.95 358.743 71.85C387.318 99.76 403.056 137.125 403.056 177.062C403.056 213.612 389.549 248.65 365.022 275.72Z" fill="#6956E0"/>
</g>
<defs>
<clipPath id="clip0_43_40">
<rect width="512" height="512" fill="white"/>
</clipPath>
</defs>
</svg>
