<svg width="509" height="509" viewBox="0 0 509 509" fill="none" xmlns="http://www.w3.org/2000/svg">
<g clip-path="url(#clip0_42_2)">
<path d="M498.099 216.6L449.599 202C444.999 184.7 438.099 168.1 429.099 152.5L452.999 107.9C455.899 102.4 454.899 95.6 450.499 91.2L416.699 57.4C412.299 53 405.499 52 399.999 54.9L355.599 79C339.999 70 323.499 63.1 306.099 58.5L291.499 10C289.699 4 284.199 0 277.999 0H230.199C223.999 0 218.499 4.1 216.699 10L202.099 58.5C184.699 63.1 168.199 70 152.599 79L107.999 55.1C102.499 52.2 95.799 53.1 91.399 57.6L57.599 91.3C53.199 95.7 52.199 102.5 55.099 108L79.099 152.5C70.099 168.1 63.199 184.6 58.599 202L10.099 216.6C4.099 218.4 0.098999 223.9 0.098999 230.1V277.9C0.098999 284.1 4.199 289.6 10.099 291.4L58.599 306C63.199 323.3 70.099 339.9 79.099 355.5L55.199 400.1C52.299 405.6 53.299 412.4 57.699 416.8L91.499 450.6C95.899 455 102.699 456 108.099 453.1L152.699 429.2C168.299 438.2 184.799 445.1 202.199 449.7L216.799 498.1C218.599 504.1 224.099 508.1 230.299 508.1H278.099C284.299 508.1 289.799 504 291.599 498.1L306.199 449.7C323.499 445.1 340.099 438.2 355.699 429.2L400.299 453.1C405.799 456 412.599 455 416.999 450.6L450.799 416.8C455.199 412.4 456.199 405.6 453.299 400.1L429.099 355.5C438.099 340 444.999 323.4 449.599 306L497.999 291.4C503.999 289.6 507.999 284.1 507.999 277.9V230.1C508.099 223.9 503.999 218.4 498.099 216.6ZM479.899 267.4L433.799 281.3C428.899 282.8 425.199 286.8 424.099 291.8C419.699 311.6 411.999 330.3 400.999 347.5C398.299 351.8 398.099 357.3 400.499 361.8L423.299 404.3L404.399 423.2L361.899 400.4C357.399 398 351.899 398.2 347.599 400.9C330.499 411.8 311.699 419.6 291.899 424C286.899 425.1 282.899 428.8 281.399 433.7L267.499 479.8H240.699L226.799 433.7C225.299 428.8 221.299 425.1 216.299 424C196.499 419.6 177.799 411.9 160.599 400.9C156.299 398.2 150.799 398 146.299 400.4L103.799 423.2L84.899 404.3L107.699 361.8C110.099 357.3 109.899 351.8 107.199 347.5C96.299 330.4 88.499 311.6 84.099 291.8C82.999 286.8 79.299 282.8 74.399 281.3L28.299 267.4V240.6L74.399 226.7C79.299 225.2 82.999 221.2 84.099 216.2C88.499 196.4 96.199 177.7 107.199 160.5C109.899 156.2 110.199 150.7 107.699 146.2L84.899 103.7L103.799 84.8L146.299 107.6C150.799 110 156.299 109.8 160.599 107.1C177.799 96.2 196.499 88.4 216.299 84C221.299 82.9 225.299 79.2 226.799 74.3L240.699 28.2H267.499L281.399 74.3C282.899 79.2 286.899 82.9 291.899 84C311.699 88.4 330.399 96.1 347.599 107.1C351.899 109.8 357.299 110 361.899 107.6L404.399 84.8L423.299 103.7L400.499 146.2C398.099 150.7 398.299 156.2 400.999 160.5C411.899 177.6 419.699 196.4 424.099 216.2C425.199 221.2 428.899 225.2 433.799 226.7L479.899 240.6V267.4Z" fill="#2c74bc"/>
<path d="M254.099 131.6C186.599 131.6 131.699 186.5 131.699 254C131.699 321.5 186.599 376.4 254.099 376.4C321.599 376.4 376.499 321.5 376.499 254C376.499 186.5 321.599 131.6 254.099 131.6ZM254.099 348.1C202.199 348.1 159.999 305.9 159.999 254C159.999 202.1 202.199 159.9 254.099 159.9C305.999 159.9 348.199 202.1 348.199 254C348.199 305.9 305.999 348.1 254.099 348.1Z" fill="#2c74bc"/>
</g>
<defs>
<clipPath id="clip0_42_2">
<rect width="508.1" height="508.1" fill="white"/>
</clipPath>
</defs>
</svg>
