<svg width="512" height="512" viewBox="0 0 512 512" fill="none" xmlns="http://www.w3.org/2000/svg">
<g clip-path="url(#clip0_44_59)">
<path d="M426.592 161.105C409.977 132.445 379.557 102.021 350.898 85.4C346.12 82.628 340.001 84.255 337.231 89.033C334.46 93.811 336.087 99.93 340.864 102.7C366.771 117.726 394.269 145.228 409.289 171.136C412.045 175.89 418.155 177.554 422.956 174.772C427.734 172.002 429.362 165.883 426.592 161.105Z" fill="#6956E0"/>
<path d="M492 187.72V90C492 51.402 460.598 20 422 20H324.28C320.152 8.361 309.036 0 296 0H216C202.964 0 191.848 8.361 187.72 20H90C51.402 20 20 51.402 20 90V187.72C8.361 191.848 0 202.964 0 216V296C0 309.036 8.361 320.152 20 324.28V422C20 460.598 51.402 492 90 492H187.72C191.848 503.639 202.963 512 216 512H296C309.036 512 320.152 503.639 324.28 492H422C460.598 492 492 460.598 492 422V324.28C503.639 320.152 512 309.037 512 296V216C512 202.964 503.639 191.848 492 187.72ZM422 40C449.57 40 472 62.43 472 90V162.386C447.994 109.504 402.551 64.03 349.614 40H422ZM322.834 50.894C385.142 72.194 439.807 126.859 461.106 189.167L374.637 202.785C361.584 173.672 338.334 150.42 309.222 137.366L322.834 50.894ZM356.137 301.594C345.129 325.78 325.78 345.129 301.594 356.137C296.021 349.765 287.917 346.05 279.06 346.05H232.94C224.083 346.05 215.979 349.765 210.406 356.137C186.22 345.129 166.871 325.78 155.863 301.594C162.235 296.021 165.95 287.917 165.95 279.06V232.94C165.95 224.083 162.235 215.979 155.863 210.406C166.874 186.214 186.235 166.861 210.437 155.853C216.01 162.196 224.097 165.9 232.924 165.91L279.05 165.94C287.904 165.94 296.01 162.227 301.587 155.859C325.776 166.866 345.128 186.217 356.137 210.405C349.765 215.978 346.05 224.082 346.05 232.939V279.059C346.05 287.916 349.765 296.021 356.137 301.594ZM216 20H296C301.295 20 305.643 24.137 305.979 29.35C304.237 40.417 295.818 93.904 288.921 137.715C288.803 138.399 288.615 139.066 288.347 139.751C286.847 143.513 283.113 146.04 279.056 146.04L232.942 146.01C228.82 146.005 225.172 143.534 223.67 139.769C223.4 139.082 223.204 138.372 223.099 137.744C216.361 94.975 207.609 39.422 206.022 29.35C206.357 24.137 210.705 20 216 20ZM189.168 50.894L202.792 137.364C173.672 150.42 150.416 173.673 137.362 202.786L50.893 189.168C72.192 126.859 126.859 72.193 189.168 50.894ZM40 90C40 62.43 62.43 39.9 90 39.9H162.386C109.504 63.905 64.03 109.449 40 162.386V90ZM20 296V216C20 210.705 24.137 206.357 29.35 206.021C144.158 224.199 137.835 222.895 139.742 223.649L139.745 223.65C143.516 225.14 146.05 228.874 146.05 232.94V279.06C146.05 283.126 143.516 286.859 139.742 288.351C139.113 288.6 138.433 288.788 137.721 288.912L29.351 305.979C24.139 305.644 20 301.296 20 296ZM90 472C62.43 472 40 449.57 40 422V349.602C64.143 402.818 109.215 447.873 162.387 472H90ZM189.165 461.123C126.08 439.738 72.293 385.997 50.876 322.836L137.363 309.215C150.417 338.33 173.67 361.584 202.786 374.638L189.165 461.123ZM296 492H216C210.705 492 206.357 487.863 206.021 482.65C207.271 474.713 216.149 418.344 223.088 374.279C223.212 373.567 223.4 372.887 223.649 372.258L223.65 372.255C225.14 368.484 228.874 365.95 232.94 365.95H279.06C283.126 365.95 286.859 368.484 288.351 372.258C288.6 372.887 288.788 373.567 288.912 374.279C295.643 417.015 304.394 472.582 305.979 482.65C305.643 487.863 301.295 492 296 492ZM322.833 461.106L309.215 374.637C338.33 361.583 361.584 338.33 374.638 309.214L461.107 322.832C439.808 385.141 385.142 439.806 322.833 461.106ZM472 422C472 449.57 449.57 472 422 472H349.614C402.496 447.995 447.97 402.551 472 349.614V422ZM492 296C492 301.295 487.863 305.643 482.65 305.979C471.38 304.204 400.429 293.03 374.279 288.912C373.567 288.788 372.887 288.6 372.255 288.35C368.484 286.86 365.95 283.126 365.95 279.06V232.94C365.95 225.985 372.158 223.732 372.258 223.649C374.21 222.878 368.15 224.151 482.65 206.021C487.862 206.357 492 210.705 492 216V296Z" fill="#6956E0"/>
</g>
<defs>
<clipPath id="clip0_44_59">
<rect width="512" height="512" fill="white"/>
</clipPath>
</defs>
</svg>
