<svg width="508" height="508" viewBox="0 0 508 508" fill="none" xmlns="http://www.w3.org/2000/svg">
<path d="M502.648 240.783C499.044 214.492 481.516 192.229 456.992 182.688C432.396 173.147 404.621 177.811 384.408 194.844L363.982 211.947L344.617 194.985L344.546 194.914L344.476 194.844C324.263 177.741 296.486 173.075 271.82 182.616C247.296 192.158 229.768 214.421 226.164 240.712C218.53 296.122 219.096 351.107 227.931 404.044V404.114V404.185C231.394 422.984 247.861 436.413 266.59 436.413C268.144 436.413 269.7 436.342 271.254 436.13C275.424 435.636 279.452 434.504 283.199 432.737L283.693 450.972H206.656C203.476 450.972 200.719 448.711 200.083 445.601L194.428 401.216C194.428 401.145 194.358 401.003 194.358 400.933C194.288 400.65 194.288 400.438 194.217 400.155C194.147 400.015 194.147 399.802 194.076 399.661C194.006 399.449 193.936 399.237 193.936 399.095C193.865 398.883 193.795 398.671 193.723 398.529C193.653 398.389 193.582 398.246 193.51 398.035C193.44 397.823 193.298 397.611 193.227 397.399C193.157 397.258 193.087 397.116 193.015 396.975C192.874 396.762 192.802 396.551 192.662 396.409C192.591 396.268 192.521 396.126 192.379 395.985C192.238 395.773 192.096 395.632 192.025 395.491C191.884 395.35 191.813 395.208 191.672 395.067C191.531 394.926 191.389 394.784 191.318 394.643C191.178 394.503 191.035 394.361 190.895 394.22C190.754 394.079 190.612 394.007 190.541 393.866C190.4 393.726 190.188 393.583 190.047 393.443C189.906 393.302 189.764 393.23 189.623 393.16C189.482 393.019 189.27 392.947 189.129 392.806C188.988 392.736 188.776 392.594 188.635 392.523C188.494 392.453 188.282 392.311 188.141 392.24C187.928 392.099 187.717 392.028 187.504 391.957C187.364 391.887 187.221 391.816 187.081 391.745C186.798 391.604 186.586 391.532 186.303 391.462C186.233 391.462 186.163 391.391 186.091 391.391C176.973 388.564 168.068 384.89 159.587 380.436C159.517 380.366 159.375 380.366 159.304 380.296C159.092 380.155 158.881 380.083 158.668 380.013C158.527 379.942 158.315 379.872 158.174 379.8C157.961 379.73 157.82 379.659 157.608 379.588C157.395 379.517 157.184 379.447 156.971 379.447C156.831 379.376 156.688 379.376 156.477 379.306C156.265 379.236 155.983 379.236 155.771 379.165C155.63 379.165 155.488 379.095 155.347 379.095C155.134 379.095 154.853 379.024 154.64 379.024C154.499 379.024 154.357 379.024 154.146 379.024C153.935 379.024 153.722 379.024 153.509 379.024C153.297 379.024 153.156 379.024 152.943 379.024C152.731 379.024 152.59 379.095 152.377 379.095C152.165 379.095 151.954 379.165 151.741 379.165C151.6 379.165 151.388 379.236 151.247 379.236C151.034 379.306 150.823 379.306 150.611 379.376C150.47 379.447 150.328 379.447 150.116 379.517C149.904 379.588 149.693 379.658 149.48 379.73C149.339 379.8 149.127 379.871 148.986 379.942C148.773 380.013 148.632 380.083 148.42 380.225C148.207 380.296 148.067 380.438 147.854 380.508C147.713 380.579 147.571 380.649 147.43 380.791C147.218 380.932 147.006 381.074 146.794 381.215C146.723 381.285 146.653 381.356 146.581 381.356L110.96 408.707C108.346 410.474 104.812 410.12 102.549 407.859L66.3638 371.674C64.1027 369.413 63.7493 365.879 65.5162 363.263L92.8674 327.642C92.9378 327.572 93.0082 327.501 93.0082 327.429C93.149 327.217 93.2911 327.006 93.4319 326.793C93.5023 326.652 93.6445 326.51 93.7149 326.369C93.7853 326.157 93.9275 326.016 93.9979 325.803C94.0683 325.591 94.2105 325.45 94.2809 325.237C94.3513 325.097 94.4217 324.954 94.4935 324.743C94.5639 324.531 94.6343 324.319 94.706 324.107C94.7764 323.966 94.7764 323.824 94.8468 323.683C94.9172 323.47 94.9876 323.259 94.9876 323.047C95.058 322.906 95.058 322.693 95.058 322.552C95.1284 322.34 95.1284 322.129 95.1284 321.916C95.1284 321.703 95.1988 321.563 95.1988 321.35C95.1988 321.138 95.1988 320.997 95.1988 320.784C95.1988 320.572 95.1988 320.36 95.1988 320.148C95.1988 320.007 95.1988 319.794 95.1988 319.654C95.1988 319.441 95.1988 319.23 95.1284 318.947C95.1284 318.806 95.058 318.664 95.058 318.453C95.058 318.24 94.9876 318.029 94.9172 317.746C94.9172 317.605 94.8468 317.393 94.7764 317.252C94.706 317.039 94.6356 316.828 94.6356 316.615C94.5652 316.403 94.4948 316.262 94.4231 316.049C94.3527 315.909 94.2823 315.696 94.2105 315.555C94.1401 315.343 93.9979 315.131 93.9275 314.848C93.8571 314.778 93.8571 314.636 93.7867 314.565C89.3335 306.084 85.6589 297.179 82.8319 288.062C82.8319 287.992 82.7615 287.849 82.7615 287.779C82.6911 287.566 82.6207 287.285 82.4785 287.072C82.4081 286.931 82.3377 286.719 82.2659 286.578C82.1955 286.365 82.1251 286.225 81.9829 286.012C81.9125 285.799 81.7704 285.659 81.7 285.446C81.6296 285.305 81.5592 285.163 81.417 285.022C81.2762 284.81 81.134 284.669 80.9932 284.456C80.9228 284.316 80.7806 284.173 80.7102 284.103C80.5694 283.89 80.4272 283.75 80.2864 283.609C80.1456 283.468 80.0739 283.396 79.9331 283.255C79.7923 283.115 79.6501 282.972 79.5093 282.832C79.3685 282.691 79.2263 282.549 79.0855 282.478C78.9447 282.337 78.8025 282.266 78.6617 282.125C78.5209 281.984 78.3083 281.842 78.1675 281.771C78.0267 281.701 77.8846 281.559 77.7438 281.488C77.5312 281.348 77.3904 281.276 77.1778 281.135C77.037 281.065 76.8948 280.994 76.754 280.923C76.5414 280.852 76.3302 280.71 76.1177 280.64C75.9769 280.569 75.7643 280.499 75.6235 280.427C75.4109 280.357 75.2701 280.286 75.0575 280.214C74.8449 280.144 74.6337 280.074 74.4212 280.074C74.2804 280.003 74.0678 280.003 73.927 279.933C73.644 279.862 73.4328 279.862 73.1498 279.792C73.0794 279.792 72.9372 279.722 72.8668 279.722L28.4817 274.067C25.3716 273.431 23.1105 270.746 23.1105 267.494V216.607C23.1105 213.427 25.3716 210.67 28.5521 210.034L73.078 203.743H73.1484C73.5018 203.673 73.9256 203.603 74.279 203.531C74.3494 203.531 74.3494 203.531 74.4198 203.531C74.7028 203.46 75.0561 203.39 75.3391 203.248C75.4799 203.177 75.6221 203.177 75.7629 203.107C75.9755 203.037 76.1867 202.966 76.3289 202.894C76.4697 202.824 76.6118 202.754 76.7526 202.682C76.9652 202.611 77.106 202.469 77.3186 202.399C77.4594 202.328 77.6016 202.258 77.7424 202.186C78.0254 202.045 78.3083 201.833 78.5899 201.62C78.6603 201.55 78.7307 201.48 78.8729 201.408C79.0855 201.267 79.2967 201.125 79.4389 200.914C79.5093 200.843 79.5797 200.773 79.7219 200.701C79.9344 200.488 80.0752 200.348 80.2878 200.135C80.3582 200.065 80.4286 199.994 80.5004 199.922C80.713 199.71 80.9242 199.499 81.0664 199.216C81.1368 199.145 81.1368 199.145 81.2072 199.075C81.6309 198.509 82.0547 197.874 82.3377 197.238C82.4081 197.167 82.4081 197.025 82.4785 196.955C82.5489 196.742 82.6911 196.531 82.7615 196.318C82.8319 196.177 82.9023 196.035 82.9023 195.824C82.9727 195.683 82.9727 195.611 83.0431 195.471C85.8701 186.353 89.5447 177.448 93.9979 168.967C94.0683 168.897 94.0683 168.754 94.1387 168.684C94.2795 168.472 94.3513 168.26 94.4217 167.977C94.4921 167.837 94.5625 167.624 94.6343 167.483C94.7047 167.271 94.7751 167.13 94.8468 166.917C94.9172 166.705 94.9876 166.493 94.9876 166.281C95.058 166.14 95.058 165.927 95.1284 165.787C95.1988 165.574 95.1988 165.363 95.2692 165.08C95.2692 164.939 95.3396 164.797 95.3396 164.586C95.3396 164.373 95.41 164.162 95.41 163.879C95.41 163.738 95.41 163.526 95.41 163.385C95.41 163.172 95.41 162.961 95.41 162.748C95.41 162.536 95.41 162.395 95.41 162.182C95.41 161.97 95.3396 161.829 95.3396 161.616C95.3396 161.404 95.2692 161.193 95.2692 160.98C95.2692 160.839 95.1988 160.627 95.1988 160.486C95.1284 160.273 95.058 160.062 95.058 159.85C94.9876 159.709 94.9876 159.567 94.9172 159.426C94.8468 159.213 94.7764 159.002 94.7047 158.789C94.6343 158.649 94.5639 158.436 94.4921 158.295C94.4217 158.083 94.3513 157.942 94.2091 157.729C94.1387 157.517 93.9965 157.376 93.9261 157.163C93.8557 157.023 93.7853 156.88 93.6431 156.74C93.5023 156.527 93.3602 156.316 93.2194 156.103C93.149 156.033 93.149 155.962 93.0786 155.891L65.7288 120.281C63.9619 117.666 64.3153 114.132 66.5764 111.87L102.693 76.391C102.693 76.391 102.693 76.391 102.693 76.3206C102.693 76.3206 102.693 76.3206 102.763 76.3206C105.024 74.0595 108.558 73.7061 111.245 75.5434L146.936 102.4L147.006 102.471C147.219 102.612 147.43 102.754 147.643 102.895C147.713 102.965 147.784 102.965 147.855 103.035C148.068 103.176 148.209 103.248 148.421 103.389C148.492 103.459 148.562 103.459 148.634 103.53C148.846 103.67 149.058 103.742 149.341 103.883C149.481 103.953 149.694 104.024 149.835 104.095C149.976 104.166 150.118 104.236 150.259 104.236C150.399 104.307 150.542 104.307 150.682 104.377C150.823 104.447 150.965 104.447 151.036 104.518C151.177 104.588 151.319 104.588 151.46 104.659C151.6 104.659 151.743 104.729 151.883 104.729C152.024 104.729 152.166 104.799 152.307 104.799C152.52 104.799 152.66 104.87 152.873 104.87C152.943 104.87 153.086 104.87 153.156 104.87C153.439 104.87 153.722 104.94 154.075 104.94C154.995 104.94 155.842 104.87 156.762 104.657C157.185 104.587 157.609 104.445 157.963 104.304C158.033 104.304 158.033 104.304 158.103 104.234C158.457 104.093 158.81 103.951 159.164 103.81C159.234 103.739 159.304 103.739 159.446 103.669C159.517 103.669 159.587 103.599 159.659 103.599C168.14 99.1454 177.045 95.4708 186.163 92.6437C186.233 92.6437 186.303 92.5733 186.375 92.5733C186.658 92.5029 186.869 92.3608 187.152 92.2904C187.293 92.22 187.435 92.1496 187.576 92.1496C187.789 92.0792 188 91.937 188.213 91.8666C188.353 91.7962 188.495 91.7258 188.707 91.5836C188.847 91.5132 189.06 91.371 189.201 91.3006C189.342 91.2302 189.554 91.088 189.695 90.9472C189.836 90.8768 189.978 90.7347 190.119 90.6643C190.26 90.5235 190.472 90.3813 190.613 90.3109C190.754 90.1701 190.896 90.0983 191.037 89.9575C191.178 89.8167 191.32 89.6745 191.461 89.6041C191.673 89.3915 191.884 89.1099 192.097 88.8974C192.097 88.827 192.167 88.827 192.167 88.7566C192.38 88.4736 192.662 88.1202 192.874 87.8372C193.087 87.5542 193.298 87.2009 193.44 86.8475C193.44 86.7771 193.51 86.7771 193.51 86.7067C193.651 86.4237 193.793 86.1407 193.934 85.8591C194.005 85.7887 194.005 85.6465 194.075 85.5761C194.145 85.3635 194.288 85.0819 194.358 84.8694C194.428 84.7286 194.428 84.516 194.499 84.3752C194.569 84.1626 194.569 84.0218 194.64 83.8092C194.71 83.5966 194.71 83.3854 194.78 83.1729C194.78 83.0321 194.851 82.9603 194.851 82.8195L200.505 38.4343C201.141 35.3243 203.826 33.0632 207.078 33.0632H258.531C261.712 33.0632 264.468 35.3243 265.105 38.4343L270.759 82.8195C270.759 82.9603 270.829 83.0321 270.829 83.1729C270.829 83.3854 270.899 83.5966 270.97 83.8092C271.04 84.0218 271.04 84.1626 271.111 84.3752C271.181 84.516 271.181 84.7286 271.251 84.8694C271.322 85.0819 271.392 85.3635 271.534 85.5761C271.605 85.6465 271.605 85.7887 271.675 85.8591C271.816 86.1421 271.958 86.4251 272.099 86.7067C272.099 86.7771 272.169 86.7771 272.169 86.8475C272.523 87.5542 272.947 88.1906 273.442 88.7552C273.442 88.8256 273.513 88.8256 273.513 88.8256C273.725 89.0382 273.936 89.3198 274.149 89.5323C274.29 89.6731 274.432 89.8153 274.573 89.8857C274.713 90.0265 274.856 90.1687 274.996 90.2391C275.137 90.3799 275.279 90.5221 275.491 90.5925C275.631 90.6629 275.774 90.8051 275.914 90.8755C276.055 91.0163 276.268 91.088 276.409 91.2288C276.549 91.2992 276.692 91.4414 276.903 91.5118C277.044 91.5822 277.186 91.6526 277.397 91.7948C277.61 91.8652 277.821 92.0074 278.033 92.0778C278.174 92.1482 278.316 92.2186 278.457 92.2186C278.74 92.289 278.951 92.4312 279.234 92.5016C279.305 92.5016 279.375 92.572 279.447 92.572C286.655 94.833 293.723 97.5897 300.579 100.841C300.509 101.83 300.509 102.82 300.509 103.88C300.509 139.431 329.416 168.266 364.895 168.266C400.373 168.266 429.28 139.359 429.28 103.88C429.28 68.3295 400.373 39.4944 364.895 39.4944C338.957 39.4944 316.552 54.9024 306.304 77.0936C302.204 75.2563 298.106 73.6302 293.935 72.1463L289.201 34.8287C289.201 34.7583 289.13 34.6161 289.13 34.5457C289.13 34.4753 289.13 34.3332 289.06 34.2628C286.445 19.5616 273.724 8.88974 258.81 8.88974H207.357C192.445 8.88974 179.723 19.5616 177.107 34.2628C177.107 34.3332 177.107 34.4753 177.037 34.5457C177.037 34.6161 176.966 34.7583 176.966 34.8287L172.232 72.1463C166.718 74.1258 161.277 76.3869 155.976 78.8605L125.939 56.3145C125.868 56.2441 125.798 56.2441 125.798 56.1737C125.728 56.1033 125.728 56.1033 125.657 56.0329C113.501 47.4814 97.0334 48.8949 86.432 59.3542C86.432 59.3542 86.432 59.3542 86.3616 59.3542L50.1801 94.9076C50.1801 94.9076 50.1801 94.9076 50.1801 94.978C50.1801 94.978 50.1801 94.978 50.1097 94.978C39.5786 105.509 38.0947 122.048 46.6463 134.274C46.7167 134.414 46.7871 134.486 46.8588 134.627C46.8588 134.627 46.9292 134.697 46.9292 134.768L69.9694 164.735C67.4957 170.036 65.2346 175.477 63.2552 180.99L25.7968 186.291C25.7264 186.291 25.656 186.291 25.5842 186.361C25.5138 186.361 25.4434 186.361 25.3716 186.361C10.6718 188.977 0 201.699 0 216.613V267.5C0 282.412 10.6718 295.134 25.373 297.75C25.5138 297.75 25.5856 297.75 25.7264 297.82C25.7968 297.82 25.8672 297.82 25.939 297.89L63.2565 302.625C65.236 308.138 67.4971 313.509 69.9708 318.81L46.9306 348.777C46.8602 348.848 46.8602 348.918 46.7898 348.99C46.7194 349.062 46.649 349.131 46.649 349.202C38.0975 361.43 39.511 377.967 50.1124 388.498L86.2981 424.684C92.2351 430.621 100.08 433.659 107.995 433.659C113.932 433.659 119.94 431.892 125.17 428.358C125.311 428.288 125.453 428.217 125.594 428.075C125.664 428.005 125.735 428.005 125.735 427.934C125.805 427.864 125.875 427.794 126.018 427.722L155.984 404.682C161.285 407.155 166.656 409.416 172.17 411.396L176.904 448.714C176.904 448.784 176.975 448.926 176.975 448.996C176.975 449.067 176.975 449.137 176.975 449.279C176.975 449.492 177.045 449.633 177.116 449.845C179.943 464.264 192.523 474.652 207.223 474.652H284.473C290.904 474.652 297.124 472.038 301.648 467.444C306.101 462.85 308.645 456.56 308.432 450.128L306.948 394.931L303.698 273.155C303.485 266.511 297.973 261.281 291.329 261.493C284.685 261.706 279.455 267.218 279.668 273.862L282.353 396.061C282.565 404.259 276.486 411.469 268.571 412.387C260.584 413.306 253.235 407.864 251.749 400.019C243.339 349.485 242.774 297.044 250.123 244.107C252.526 226.438 264.258 211.526 280.655 205.095C297.051 198.734 315.569 201.844 328.997 213.222L355.995 236.829C356.136 236.969 356.278 237.041 356.349 237.112C356.489 237.252 356.632 237.324 356.772 237.465C356.985 237.678 357.267 237.818 357.55 237.959C357.62 238.03 357.69 238.1 357.833 238.1C358.186 238.313 358.539 238.524 358.893 238.666C358.963 238.736 359.105 238.736 359.176 238.807C359.459 238.948 359.742 239.019 360.023 239.16C360.164 239.231 360.236 239.23 360.377 239.301C360.66 239.371 360.943 239.442 361.224 239.513C361.365 239.513 361.437 239.584 361.577 239.584C361.86 239.654 362.143 239.654 362.425 239.725C362.495 239.725 362.638 239.725 362.708 239.795C363.132 239.865 363.485 239.865 363.909 239.865C364.262 239.865 364.686 239.865 365.04 239.795C365.11 239.795 365.252 239.795 365.323 239.725C365.606 239.725 365.889 239.654 366.17 239.584C366.311 239.584 366.383 239.513 366.523 239.513C366.806 239.443 367.089 239.373 367.301 239.301C367.441 239.301 367.513 239.23 367.654 239.23C367.937 239.16 368.22 239.018 368.502 238.877C368.572 238.807 368.714 238.807 368.785 238.736C369.138 238.596 369.491 238.383 369.845 238.242C369.915 238.172 370.057 238.101 370.128 238.03C370.34 237.889 370.622 237.747 370.834 237.535C370.975 237.465 371.117 237.323 371.258 237.252C371.399 237.182 371.471 237.04 371.612 236.969L399.882 213.222C413.311 201.844 431.899 198.663 448.225 205.095C464.621 211.456 476.354 226.438 478.756 244.107C486.107 297.044 485.541 349.556 477.13 400.089C475.646 408.004 468.296 413.447 460.309 412.457C452.111 411.468 445.891 404.259 446.103 396.061L449.213 274.286C449.354 267.642 444.125 262.13 437.481 261.988C430.837 261.845 425.325 267.076 425.183 273.72L419.812 486.808C419.671 493.452 424.9 498.964 431.544 499.106C431.615 499.106 431.757 499.106 431.827 499.106C438.329 499.106 443.701 493.946 443.842 487.374L445.256 432.741C449.072 434.578 453.171 435.781 457.554 436.275C459.108 436.487 460.664 436.558 462.218 436.558C480.947 436.558 497.415 423.129 500.877 404.33V404.259V404.189C509.716 351.179 510.352 296.194 502.648 240.783ZM324.544 96.8871C324.544 96.7463 324.615 96.6041 324.615 96.4633C328.219 77.9467 344.617 63.9523 364.193 63.9523C386.456 63.9523 404.549 82.0451 404.549 104.308C404.549 126.571 386.456 144.664 364.193 144.664C341.93 144.664 323.838 126.571 323.838 104.308C323.838 101.764 324.121 99.2903 324.544 96.8871Z" fill="#6956E0"/>
<path d="M256.978 175.549C263.198 177.81 270.124 174.629 272.386 168.411C274.647 162.191 271.467 155.265 265.248 153.003C241.855 144.381 216.482 145.228 193.725 155.336C170.967 165.443 153.369 183.819 144.11 206.929C134.852 230.04 135.063 255.483 144.605 278.525C154.146 301.565 171.956 319.658 194.855 329.482C196.409 330.118 198.035 330.472 199.59 330.472C204.254 330.472 208.707 327.715 210.615 323.192C213.229 317.114 210.402 310.046 204.325 307.43C168.703 292.094 152.024 251.879 166.442 215.834C180.79 179.861 220.58 162.12 256.978 175.549Z" fill="#6956E0"/>
</svg>
